<svg xmlns="http://www.w3.org/2000/svg" width="300" height="300" fill="none"><path fill="#191919" d="M0 0h300v300H0z"/><path fill="#FCFCFC" d="M32 123.571h8.286a3 3 0 0 0 3-3V98a3 3 0 0 1 3-3h8.285a3 3 0 0 1 3 3v22.571a3 3 0 0 0 3 3h22.572a3 3 0 0 1 3 3v8.286a3 3 0 0 1-3 3H60.57a3 3 0 0 0-3 3v39.857h25.572a3 3 0 0 1 3 3V192a3 3 0 0 1-3 3H60.57a3 3 0 0 1-3-3v-11.286H46.286a3 3 0 0 1-3-3v-36.857a3 3 0 0 0-3-3H32a3 3 0 0 1-3-3v-8.286a3 3 0 0 1 3-3ZM100.429 192v-51.143a3 3 0 0 1 3-3h11.285v-11.286a3 3 0 0 1 3-3h22.572a3 3 0 0 1 3 3v8.286a3 3 0 0 1-3 3h-25.572V192a3 3 0 0 1-3 3h-8.285a3 3 0 0 1-3-3Zm57.142-14.286V98a3 3 0 0 1 3-3h8.286a3 3 0 0 1 3 3v82.714h25.572a3 3 0 0 1 3 3V192a3 3 0 0 1-3 3h-22.572a3 3 0 0 1-3-3v-11.286h-11.286a3 3 0 0 1-3-3Zm57.143 0v-36.857a3 3 0 0 1 3-3H229v-11.286a3 3 0 0 1 3-3h36.857a3 3 0 0 1 3 3v8.286a3 3 0 0 1-3 3H229v42.857h39.857a3 3 0 0 1 3 3V192a3 3 0 0 1-3 3H232a3 3 0 0 1-3-3v-11.286h-11.286a3 3 0 0 1-3-3Z"/></svg>